HIERARCHY
ROOT Hips
{
	OFFSET 0.000000 0.000000 0.000000
	CHANNELS 6 Xposition Yposition Zposition Zrotation Yrotation Xrotation 
	JOINT LHipJoint
	{
		OFFSET 0.000000 0.000000 0.000000
		CHANNELS 3 Zrotation Yrotation Xrotation
		JOINT LeftUpLeg
		{
			OFFSET 1.363060 -1.794630 0.839290
			CHANNELS 3 Zrotation Yrotation Xrotation
			JOINT LeftLeg
			{
				OFFSET 2.448110 -6.726130 0.000000
				CHANNELS 3 Zrotation Yrotation Xrotation
				JOINT LeftFoot
				{
					OFFSET 2.562200 -7.039590 0.000000
					CHANNELS 3 Zrotation Yrotation Xrotation
					JOINT LeftToeBase
					{
						OFFSET 0.157640 -0.433110 2.322550
						CHANNELS 3 Zrotation Yrotation Xrotation
						End Site
						{
							OFFSET 0.000000 0.000000 0.000000
						}
					}
				}
			}
		}
	}
	JOINT RHipJoint
	{
		OFFSET 0.000000 0.000000 0.000000
		CHANNELS 3 Zrotation Yrotation Xrotation
		JOINT RightUpLeg
		{
			OFFSET -1.305520 -1.794630 0.839290
			CHANNELS 3 Zrotation Yrotation Xrotation
			JOINT RightLeg
			{
				OFFSET -2.542530 -6.985550 0.000000
				CHANNELS 3 Zrotation Yrotation Xrotation
				JOINT RightFoot
				{
					OFFSET -2.568260 -7.056230 0.000000
					CHANNELS 3 Zrotation Yrotation Xrotation
					JOINT RightToeBase
					{
						OFFSET -0.164730 -0.452590 2.363150
						CHANNELS 3 Zrotation Yrotation Xrotation
						End Site
						{
							OFFSET 0.000000 0.000000 0.000000
						}
					}
				}
			}
		}
	}
}
MOTION
Frames: 17
Frame Time: 0.008333
2.551717 17.633056 2.849437 -168.170345 -84.228750 -174.239874 -10.823583 1.404749 -0.094717 -7.941509 5.768667 -15.299884 -2.037646 -0.350162 10.131042 0.746893 4.985225 -1.115356 0.658400 0.000000 -43.195601 9.751303 -0.189744 -2.248549 10.741156 -9.166618 -40.893806 1.027035 -3.797496 47.452033 -0.767179 -2.852678 0.704532 -0.642800 0.000001 -53.896500
2.334686 17.630576 2.836082 -168.022090 -84.869365 -174.269483 -10.851041 1.495203 -0.103740 -7.773880 5.605993 -14.341805 -2.048954 -0.344539 9.629003 0.661605 4.422415 -0.766058 0.621200 0.000000 -44.135199 9.619603 -0.046503 -2.035123 10.806399 -8.640134 -41.780534 1.240754 -3.630351 44.898763 -0.721724 -2.643386 0.881996 -0.659200 -0.000000 -54.340000
2.119004 17.620458 2.819903 -168.527277 -85.516060 -173.643987 -10.869853 1.569986 -0.130370 -7.637229 5.385057 -13.377656 -2.061198 -0.337131 9.209139 0.583950 3.882095 -0.512255 0.574300 0.000000 -45.064000 9.495190 0.097574 -1.799477 10.705992 -8.053077 -42.542572 1.448665 -3.435996 42.117125 -0.694796 -2.566580 1.216643 -0.708501 0.000000 -54.755700
1.904557 17.602551 2.800906 -170.118808 -86.171142 -171.939165 -10.883049 1.624593 -0.180694 -7.539602 5.122943 -12.383228 -2.075534 -0.331028 8.850572 0.512979 3.367083 -0.354777 0.521200 0.000001 -45.984300 9.377236 0.236763 -1.542345 10.432141 -7.420727 -43.168193 1.649594 -3.211340 39.104789 -0.686772 -2.617287 1.670002 -0.791000 -0.000000 -55.056000
1.691236 17.576840 2.779054 -173.579767 -86.848320 -168.381010 -10.890832 1.650502 -0.261674 -7.488500 4.836845 -11.336142 -2.093333 -0.330818 8.534735 0.446702 2.875377 -0.287974 0.464900 -0.000000 -46.903000 9.266593 0.360741 -1.263471 9.980226 -6.767032 -43.654912 1.842531 -2.955358 35.864095 -0.697125 -2.779180 2.202339 -0.904700 -0.000000 -55.167900
1.478474 17.543290 2.754434 179.701468 -87.579724 -161.582669 -10.875853 1.634942 -0.381950 -7.483542 4.540692 -10.218379 -2.116853 -0.343690 8.248301 0.382012 2.398629 -0.302031 0.408099 -0.000000 -47.828800 9.176962 0.454370 -0.958771 9.354237 -6.124171 -44.012009 2.025380 -2.670617 32.401619 -0.725122 -3.027038 2.776990 -1.044200 0.000000 -55.054800
1.265828 17.502031 2.727161 167.521079 -88.396242 -149.342377 -10.759007 1.581994 -0.552357 -7.498431 4.249251 -9.019264 -2.151907 -0.373632 7.979753 0.317520 1.928540 -0.387890 0.353000 0.000001 -48.770800 9.172116 0.525635 -0.619868 8.586883 -5.518896 -44.247414 2.186612 -2.358582 28.728258 -0.769089 -3.329071 3.368559 -1.199600 -0.000000 -54.728700
1.052673 17.453305 2.697478 148.278437 -89.144425 -130.059910 -10.425510 1.588180 -0.762888 -7.488088 4.009722 -7.761764 -2.208035 -0.393468 7.688320 0.264514 1.491028 -0.551344 0.300899 0.000000 -49.736000 9.359744 0.694087 -0.256781 7.760726 -4.913340 -44.345775 2.294040 -1.994932 24.889945 -0.811369 -3.622660 3.976957 -1.356500 0.000000 -54.254801
0.838331 17.397448 2.665709 126.001770 -89.452869 -107.766553 -10.038090 1.740253 -0.963265 -7.515527 3.876607 -6.484097 -2.279694 -0.366828 7.316684 0.235206 1.132274 -0.783025 0.252900 -0.000001 -50.727000 9.634837 1.048679 0.080359 6.888281 -4.275055 -44.318605 2.344711 -1.554233 20.984171 -0.814354 -3.801446 4.619627 -1.496300 -0.000000 -53.744500
0.622256 17.334958 2.632271 108.465702 -89.328569 -90.239333 -9.806789 1.926660 -1.146868 -7.657134 3.819330 -5.172701 -2.352457 -0.324698 6.894359 0.214156 0.815626 -1.039668 0.209200 0.000000 -51.741700 9.816636 1.436062 0.380447 5.912509 -3.722524 -44.247472 2.381122 -1.079091 17.062360 -0.771392 -3.812737 5.285022 -1.598100 0.000000 -53.337800
0.404049 17.266390 2.597696 97.541357 -88.981900 -79.352951 -9.677538 2.080127 -1.334132 -7.878869 3.803204 -3.804275 -2.424051 -0.293750 6.453690 0.190685 0.506126 -1.293208 0.170400 0.000000 -52.770700 9.931022 1.776062 0.652464 4.873132 -3.345400 -44.174978 2.418057 -0.610105 13.166214 -0.687274 -3.627542 5.956927 -1.637700 0.000000 -53.176600
0.182146 17.195925 2.564335 71.101662 -88.333186 -52.939400 -9.739816 2.287575 -1.272723 -7.970290 2.955360 -2.712991 -2.448838 -0.214031 6.353388 0.182994 0.231711 -1.722804 0.129600 0.000000 -53.741899 9.921433 2.206184 0.643994 4.163802 -4.175458 -44.107280 2.588215 -0.127716 9.358221 -0.487775 -2.952018 6.575009 -1.527401 0.000000 -53.422201
-0.041662 17.117715 2.528503 70.517658 -87.782817 -52.462333 -9.659115 2.380193 -1.466557 -8.245605 2.978404 -1.238770 -2.517543 -0.207715 5.923970 0.153163 -0.074034 -1.936507 0.101300 0.000000 -54.757900 10.004484 2.472121 0.835476 3.223175 -4.248889 -44.088996 2.640568 0.281137 5.753926 -0.312383 -2.237521 7.203787 -1.367399 -0.000000 -54.073800
-0.268590 17.035851 2.493042 70.095376 -87.247278 -52.180905 -9.583959 2.476757 -1.647549 -8.492820 3.020893 0.252513 -2.581026 -0.199074 5.523150 0.124268 -0.370372 -2.121403 0.076600 -0.000000 -55.764500 10.079440 2.735593 0.969999 2.446148 -4.516097 -44.126323 2.707343 0.651440 2.432032 -0.092862 -1.239852 7.761805 -1.095500 -0.000000 -55.152201
-0.498724 16.951461 2.458368 69.548562 -86.741628 -51.805411 -9.521881 2.575215 -1.811975 -8.685091 3.070910 1.741073 -2.634938 -0.185004 5.175267 0.096749 -0.653506 -2.269929 0.055200 0.000000 -56.766300 10.131865 2.992491 1.050043 1.867495 -4.933891 -44.227575 2.791563 0.980923 -0.544000 0.155514 -0.008112 8.204528 -0.728000 -0.000000 -56.598200
-0.732298 16.865614 2.424645 68.737378 -86.274946 -51.183871 -9.477980 2.673214 -1.957012 -8.803457 3.113687 3.198691 -2.676182 -0.162788 4.909729 0.071238 -0.918041 -2.380154 0.036600 -0.000000 -57.775300 10.151099 3.237574 1.083219 1.502205 -5.454131 -44.411765 2.892972 1.268366 -3.098960 0.414973 1.389136 8.463651 -0.293900 0.000000 -58.247400
-0.969345 16.779545 2.391933 67.614113 -85.857633 -50.252700 -9.456724 2.766611 -2.083002 -8.831599 3.135638 4.597048 -2.701726 -0.130282 4.748386 0.048853 -1.153222 -2.448154 0.020801 0.000000 -58.815499 10.131448 3.460907 1.088899 1.320295 -5.984756 -44.663079 3.000293 1.518742 -5.221965 0.659163 2.802967 8.509259 0.145300 0.000001 -59.930500
